<svg version="1.1" id="Layer_1" xmlns="http://www.w3.org/2000/svg" xmlns:xlink="http://www.w3.org/1999/xlink" x="0px" y="0px"
	 width="100%" viewBox="0 0 2400 2400" enable-background="new 0 0 2400 2400" xml:space="preserve">
<path fill="#000000" opacity="1.000000" stroke="none" 
	d="
M1394.000000,2402.000000 
	C929.333313,2402.000000 465.666656,2402.000000 2.000000,2402.000000 
	C2.000000,1602.000000 2.000000,802.000000 2.000000,2.000000 
	C802.000000,2.000000 1602.000000,2.000000 2402.000000,2.000000 
	C2402.000000,802.000000 2402.000000,1602.000000 2402.000000,2402.000000 
	C2066.333252,2402.000000 1730.666626,2402.000000 1394.000000,2402.000000 
M1624.999878,1453.674316 
	C1661.574219,1453.674316 1698.148560,1453.674316 1735.190674,1453.674316 
	C1735.190674,1448.230347 1735.190674,1443.756958 1735.190674,1438.788208 
	C1731.532349,1438.384399 1728.290039,1437.973999 1725.037476,1437.676270 
	C1707.267578,1436.049316 1691.350464,1430.113037 1679.246704,1416.548828 
	C1671.957886,1408.380859 1665.372681,1399.567871 1658.700806,1390.868652 
	C1614.208252,1332.855835 1569.772217,1274.799561 1525.353027,1216.730347 
	C1524.059937,1215.039795 1523.158081,1213.050049 1522.240967,1211.485107 
	C1530.605713,1209.732788 1538.330933,1208.160034 1546.035767,1206.492798 
	C1599.246460,1194.980347 1643.755737,1145.722412 1650.643677,1093.509644 
	C1656.364624,1050.144287 1644.002930,1013.108032 1614.359863,982.213318 
	C1585.857178,952.507385 1549.503418,938.667786 1508.650269,938.479797 
	C1407.003784,938.012024 1305.353516,938.321594 1203.704834,938.347717 
	C1200.813354,938.348450 1197.921997,938.673462 1194.940918,938.852600 
	C1194.940918,946.008911 1194.940918,952.478210 1194.940918,959.674316 
	C1198.154785,959.674316 1200.760254,959.615051 1203.362183,959.684143 
	C1218.379761,960.082703 1233.127075,962.116943 1247.162476,967.726257 
	C1258.136963,972.112183 1259.651489,974.580383 1259.653687,986.315613 
	C1259.660522,1021.945190 1259.656128,1057.574707 1259.656128,1093.204346 
	C1259.656128,1136.530029 1259.656128,1179.855713 1259.656128,1223.181396 
	C1259.656128,1284.152710 1259.462158,1345.125244 1259.854126,1406.094116 
	C1259.916748,1415.838867 1256.516235,1422.160278 1247.968750,1425.708008 
	C1240.341309,1428.873901 1232.609375,1432.106934 1224.611816,1433.978882 
	C1215.371094,1436.141846 1205.789429,1436.847290 1196.219604,1438.204956 
	C1196.219604,1443.327637 1196.219604,1448.139282 1196.219604,1453.270264 
	C1275.631836,1453.270264 1354.480347,1453.270264 1433.590210,1453.270264 
	C1433.590210,1448.138550 1433.590210,1443.428467 1433.590210,1438.628052 
	C1429.231812,1438.265869 1425.602661,1438.039429 1421.990967,1437.651123 
	C1408.044922,1436.150879 1394.485962,1433.266479 1382.114380,1426.246826 
	C1374.820190,1422.108154 1370.149658,1417.070190 1370.166138,1407.485107 
	C1370.421021,1259.511719 1370.340820,1111.537720 1370.370361,963.563904 
	C1370.370850,961.050598 1370.767456,958.537354 1371.006226,955.703247 
	C1398.106079,955.703247 1424.421387,955.662903 1450.736206,955.759399 
	C1453.697510,955.770325 1456.687378,956.401611 1459.610962,957.002441 
	C1496.548584,964.593384 1524.719849,984.646973 1543.319824,1017.388306 
	C1557.291870,1041.983154 1562.053589,1068.733276 1554.835449,1096.173706 
	C1542.393433,1143.473511 1510.356812,1171.204224 1463.312134,1181.565674 
	C1451.151367,1184.244019 1438.246704,1183.782593 1425.664795,1184.240601 
	C1414.516357,1184.646362 1403.341553,1184.325684 1390.496826,1184.325684 
	C1392.985474,1188.627563 1394.440674,1191.471558 1396.193359,1194.118530 
	C1406.832275,1210.187866 1417.579224,1226.185547 1428.214966,1242.256836 
	C1457.758789,1286.899658 1487.668701,1331.307861 1516.628296,1376.326782 
	C1532.703369,1401.315674 1553.044312,1423.867798 1561.896729,1453.674316 
	C1582.439697,1453.674316 1602.719727,1453.674316 1624.999878,1453.674316 
M234.999878,1453.679077 
	C349.195068,1453.679077 463.390259,1453.679077 577.484863,1453.679077 
	C577.484863,1425.467407 577.484863,1398.316284 577.484863,1370.845947 
	C572.132202,1370.845947 567.649658,1370.845947 563.535889,1370.845947 
	C562.994690,1371.632690 562.699951,1371.876831 562.654480,1372.160889 
	C562.497253,1373.142578 562.405640,1374.136475 562.326782,1375.128662 
	C560.891113,1393.196289 553.177673,1408.198364 540.017151,1420.471558 
	C530.676086,1429.182739 519.918457,1433.809082 506.759308,1433.770020 
	C430.114899,1433.541870 353.469452,1433.663330 276.824371,1433.638672 
	C274.036316,1433.637817 271.248322,1433.346436 267.154724,1433.117554 
	C370.552216,1267.934448 473.203857,1103.942871 576.142395,939.492920 
	C562.614258,937.436890 167.739487,937.957947 160.794189,939.833008 
	C158.961029,964.717041 159.806641,1014.343506 162.198135,1021.157715 
	C169.060349,1021.157715 175.936584,1021.157715 183.285202,1021.157715 
	C183.528580,1008.987854 185.848007,997.730469 191.151138,987.230347 
	C200.586136,968.549011 214.357742,957.888916 236.705887,958.115417 
	C300.348114,958.760376 364.001099,958.341858 427.649841,958.341858 
	C430.853119,958.341858 434.056427,958.341797 439.141693,958.341797 
	C334.873169,1123.947021 231.539551,1288.067261 127.266884,1453.679077 
	C163.869583,1453.679077 198.434708,1453.679077 234.999878,1453.679077 
M912.198486,1299.680298 
	C916.062378,1299.342896 919.309998,1299.814331 921.020325,1304.159668 
	C922.349854,1307.537476 924.478149,1310.592651 926.121033,1313.856812 
	C941.194336,1343.804443 955.741882,1374.031250 971.497498,1403.614868 
	C979.626587,1418.878662 978.102356,1422.321411 962.162354,1429.690430 
	C960.360779,1430.523315 958.469421,1431.303589 956.536133,1431.686279 
	C945.902405,1433.790649 935.242676,1435.763794 924.107178,1437.873901 
	C924.107178,1442.456543 924.107178,1447.619995 924.107178,1453.109375 
	C1005.340332,1453.109375 1086.115479,1453.109375 1167.104004,1453.109375 
	C1167.104004,1447.391602 1167.104004,1442.254150 1167.104004,1436.319946 
	C1164.270996,1436.319946 1161.974243,1436.576050 1159.752686,1436.275513 
	C1150.253540,1434.990479 1140.592529,1434.284058 1131.332642,1431.987427 
	C1115.165894,1427.977417 1103.067383,1418.985474 1095.625977,1403.112549 
	C1083.635742,1377.536255 1070.264526,1352.609009 1057.567749,1327.361816 
	C1041.602661,1295.615723 1025.826782,1263.774292 1009.789612,1232.064819 
	C993.292114,1199.445190 976.516113,1166.966553 959.979431,1134.366577 
	C946.463806,1107.722412 933.134338,1080.983887 919.698242,1054.299316 
	C905.506348,1026.113647 891.329224,997.920532 877.054626,969.776855 
	C871.929199,959.671509 866.538635,949.700500 860.791870,938.759827 
	C858.977722,941.979187 857.707947,943.915283 856.743958,945.993225 
	C848.358093,964.068298 840.026855,982.168823 831.679810,1000.261902 
	C800.116394,1068.678955 768.604126,1137.119629 736.975159,1205.506470 
	C706.032776,1272.408569 674.748108,1339.153687 644.144897,1406.210327 
	C637.771240,1420.176147 627.866821,1428.576538 613.559326,1432.216309 
	C604.674866,1434.476440 595.567993,1435.862183 586.112000,1437.729126 
	C586.112000,1442.464600 586.112000,1447.628052 586.112000,1453.091309 
	C625.362610,1453.091309 664.149109,1453.091309 703.093140,1453.091309 
	C703.093140,1447.343994 703.093140,1442.196289 703.093140,1436.744019 
	C699.601440,1436.467651 696.500977,1436.761597 693.761597,1435.903198 
	C685.921875,1433.446533 677.761292,1431.392456 670.603210,1427.548340 
	C662.703979,1423.306274 662.018677,1418.188354 665.871338,1409.846802 
	C677.273499,1385.159790 688.658569,1360.464966 700.079041,1335.786255 
	C705.629944,1323.791138 711.244690,1311.825806 716.908325,1299.680176 
	C781.771240,1299.680176 846.060303,1299.680176 912.198486,1299.680298 
M2129.520020,1429.013306 
	C2115.918213,1432.495117 2102.316406,1435.976929 2088.884766,1439.415161 
	C2088.884766,1443.824585 2088.884766,1448.352295 2088.884766,1453.111938 
	C2170.596436,1453.111938 2251.742188,1453.111938 2333.075684,1453.111938 
	C2333.075684,1447.728271 2333.075684,1442.925049 2333.075684,1437.969849 
	C2330.494141,1437.846680 2328.509521,1437.745850 2326.524414,1437.658325 
	C2313.520264,1437.084961 2300.762207,1434.996704 2288.750977,1429.917847 
	C2278.498291,1425.582642 2269.765869,1419.469849 2264.477051,1408.865234 
	C2248.310547,1376.449829 2231.643555,1344.284424 2215.276855,1311.968262 
	C2183.751465,1249.720947 2152.277100,1187.447632 2120.826172,1125.162598 
	C2108.541016,1100.833374 2096.400146,1076.431152 2084.148682,1052.084961 
	C2070.560059,1025.081909 2056.969482,998.079712 2043.277588,971.129028 
	C2037.945190,960.632507 2032.333984,950.277466 2026.277344,938.770508 
	C2024.822876,941.303162 2023.928833,942.615295 2023.274292,944.037598 
	C2017.580933,956.407593 2011.988037,968.824036 2006.256958,981.176392 
	C1985.013062,1026.965332 1963.682983,1072.714478 1942.470215,1118.517944 
	C1918.327637,1170.647217 1894.315918,1222.837158 1870.172485,1274.966064 
	C1849.927734,1318.677490 1829.130737,1362.141113 1809.533325,1406.139771 
	C1803.395630,1419.919678 1793.897095,1428.162842 1780.210449,1432.213867 
	C1771.097778,1434.911011 1761.668213,1436.537354 1752.234863,1438.675903 
	C1752.234863,1443.364746 1752.234863,1448.177368 1752.234863,1453.257080 
	C1791.014160,1453.257080 1829.208374,1453.257080 1867.875488,1453.257080 
	C1867.875488,1448.332520 1867.875488,1443.826538 1867.875488,1438.648315 
	C1865.133301,1438.303467 1862.550171,1438.048706 1859.990723,1437.643921 
	C1851.045288,1436.229736 1842.438721,1433.878906 1835.362915,1427.824219 
	C1828.440674,1421.900879 1827.623047,1418.094971 1831.458130,1409.718506 
	C1843.756226,1382.856079 1856.067749,1355.999634 1868.440918,1329.171631 
	C1872.993286,1319.300903 1877.730957,1309.515747 1882.157104,1300.170654 
	C1950.300903,1300.170654 2017.550903,1300.170654 2084.560303,1300.170654 
	C2092.896973,1316.651611 2101.010498,1332.635010 2109.072754,1348.644287 
	C2119.386475,1369.124390 2129.703613,1389.603027 2139.924072,1410.129517 
	C2143.442139,1417.195068 2143.128174,1418.829468 2137.452637,1423.899536 
	C2135.506592,1425.637939 2133.056152,1426.811890 2129.520020,1429.013306 
z"/>
<path fill="#FDFDFD" opacity="1.000000" stroke="none" 
	d="
M1623.999756,1453.674316 
	C1602.719727,1453.674316 1582.439697,1453.674316 1561.896729,1453.674316 
	C1553.044312,1423.867798 1532.703369,1401.315674 1516.628296,1376.326782 
	C1487.668701,1331.307861 1457.758789,1286.899658 1428.214966,1242.256836 
	C1417.579224,1226.185547 1406.832275,1210.187866 1396.193359,1194.118530 
	C1394.440674,1191.471558 1392.985474,1188.627563 1390.496826,1184.325684 
	C1403.341553,1184.325684 1414.516357,1184.646362 1425.664795,1184.240601 
	C1438.246704,1183.782593 1451.151367,1184.244019 1463.312134,1181.565674 
	C1510.356812,1171.204224 1542.393433,1143.473511 1554.835449,1096.173706 
	C1562.053589,1068.733276 1557.291870,1041.983154 1543.319824,1017.388306 
	C1524.719849,984.646973 1496.548584,964.593384 1459.610962,957.002441 
	C1456.687378,956.401611 1453.697510,955.770325 1450.736206,955.759399 
	C1424.421387,955.662903 1398.106079,955.703247 1371.006226,955.703247 
	C1370.767456,958.537354 1370.370850,961.050598 1370.370361,963.563904 
	C1370.340820,1111.537720 1370.421021,1259.511719 1370.166138,1407.485107 
	C1370.149658,1417.070190 1374.820190,1422.108154 1382.114380,1426.246826 
	C1394.485962,1433.266479 1408.044922,1436.150879 1421.990967,1437.651123 
	C1425.602661,1438.039429 1429.231812,1438.265869 1433.590210,1438.628052 
	C1433.590210,1443.428467 1433.590210,1448.138550 1433.590210,1453.270264 
	C1354.480347,1453.270264 1275.631836,1453.270264 1196.219604,1453.270264 
	C1196.219604,1448.139282 1196.219604,1443.327637 1196.219604,1438.204956 
	C1205.789429,1436.847290 1215.371094,1436.141846 1224.611816,1433.978882 
	C1232.609375,1432.106934 1240.341309,1428.873901 1247.968750,1425.708008 
	C1256.516235,1422.160278 1259.916748,1415.838867 1259.854126,1406.094116 
	C1259.462158,1345.125244 1259.656128,1284.152710 1259.656128,1223.181396 
	C1259.656128,1179.855713 1259.656128,1136.530029 1259.656128,1093.204346 
	C1259.656128,1057.574707 1259.660522,1021.945190 1259.653687,986.315613 
	C1259.651489,974.580383 1258.136963,972.112183 1247.162476,967.726257 
	C1233.127075,962.116943 1218.379761,960.082703 1203.362183,959.684143 
	C1200.760254,959.615051 1198.154785,959.674316 1194.940918,959.674316 
	C1194.940918,952.478210 1194.940918,946.008911 1194.940918,938.852600 
	C1197.921997,938.673462 1200.813354,938.348450 1203.704834,938.347717 
	C1305.353516,938.321594 1407.003784,938.012024 1508.650269,938.479797 
	C1549.503418,938.667786 1585.857178,952.507385 1614.359863,982.213318 
	C1644.002930,1013.108032 1656.364624,1050.144287 1650.643677,1093.509644 
	C1643.755737,1145.722412 1599.246460,1194.980347 1546.035767,1206.492798 
	C1538.330933,1208.160034 1530.605713,1209.732788 1522.240967,1211.485107 
	C1523.158081,1213.050049 1524.059937,1215.039795 1525.353027,1216.730347 
	C1569.772217,1274.799561 1614.208252,1332.855835 1658.700806,1390.868652 
	C1665.372681,1399.567871 1671.957886,1408.380859 1679.246704,1416.548828 
	C1691.350464,1430.113037 1707.267578,1436.049316 1725.037476,1437.676270 
	C1728.290039,1437.973999 1731.532349,1438.384399 1735.190674,1438.788208 
	C1735.190674,1443.756958 1735.190674,1448.230347 1735.190674,1453.674316 
	C1698.148560,1453.674316 1661.574219,1453.674316 1623.999756,1453.674316 
z"/>
<path fill="#FCFCFC" opacity="1.000000" stroke="none" 
	d="
M233.999863,1453.679077 
	C198.434708,1453.679077 163.869583,1453.679077 127.266884,1453.679077 
	C231.539551,1288.067261 334.873169,1123.947021 439.141693,958.341797 
	C434.056427,958.341797 430.853119,958.341858 427.649841,958.341858 
	C364.001099,958.341858 300.348114,958.760376 236.705887,958.115417 
	C214.357742,957.888916 200.586136,968.549011 191.151138,987.230347 
	C185.848007,997.730469 183.528580,1008.987854 183.285202,1021.157715 
	C175.936584,1021.157715 169.060349,1021.157715 162.198135,1021.157715 
	C159.806641,1014.343506 158.961029,964.717041 160.794189,939.833008 
	C167.739487,937.957947 562.614258,937.436890 576.142395,939.492920 
	C473.203857,1103.942871 370.552216,1267.934448 267.154724,1433.117554 
	C271.248322,1433.346436 274.036316,1433.637817 276.824371,1433.638672 
	C353.469452,1433.663330 430.114899,1433.541870 506.759308,1433.770020 
	C519.918457,1433.809082 530.676086,1429.182739 540.017151,1420.471558 
	C553.177673,1408.198364 560.891113,1393.196289 562.326782,1375.128662 
	C562.405640,1374.136475 562.497253,1373.142578 562.654480,1372.160889 
	C562.699951,1371.876831 562.994690,1371.632690 563.535889,1370.845947 
	C567.649658,1370.845947 572.132202,1370.845947 577.484863,1370.845947 
	C577.484863,1398.316284 577.484863,1425.467407 577.484863,1453.679077 
	C463.390259,1453.679077 349.195068,1453.679077 233.999863,1453.679077 
z"/>
<path fill="#FCFCFC" opacity="1.000000" stroke="none" 
	d="
M911.273926,1299.680176 
	C846.060303,1299.680176 781.771240,1299.680176 716.908325,1299.680176 
	C711.244690,1311.825806 705.629944,1323.791138 700.079041,1335.786255 
	C688.658569,1360.464966 677.273499,1385.159790 665.871338,1409.846802 
	C662.018677,1418.188354 662.703979,1423.306274 670.603210,1427.548340 
	C677.761292,1431.392456 685.921875,1433.446533 693.761597,1435.903198 
	C696.500977,1436.761597 699.601440,1436.467651 703.093140,1436.744019 
	C703.093140,1442.196289 703.093140,1447.343994 703.093140,1453.091309 
	C664.149109,1453.091309 625.362610,1453.091309 586.112000,1453.091309 
	C586.112000,1447.628052 586.112000,1442.464600 586.112000,1437.729126 
	C595.567993,1435.862183 604.674866,1434.476440 613.559326,1432.216309 
	C627.866821,1428.576538 637.771240,1420.176147 644.144897,1406.210327 
	C674.748108,1339.153687 706.032776,1272.408569 736.975159,1205.506470 
	C768.604126,1137.119629 800.116394,1068.678955 831.679810,1000.261902 
	C840.026855,982.168823 848.358093,964.068298 856.743958,945.993225 
	C857.707947,943.915283 858.977722,941.979187 860.791870,938.759827 
	C866.538635,949.700500 871.929199,959.671509 877.054626,969.776855 
	C891.329224,997.920532 905.506348,1026.113647 919.698242,1054.299316 
	C933.134338,1080.983887 946.463806,1107.722412 959.979431,1134.366577 
	C976.516113,1166.966553 993.292114,1199.445190 1009.789612,1232.064819 
	C1025.826782,1263.774292 1041.602661,1295.615723 1057.567749,1327.361816 
	C1070.264526,1352.609009 1083.635742,1377.536255 1095.625977,1403.112549 
	C1103.067383,1418.985474 1115.165894,1427.977417 1131.332642,1431.987427 
	C1140.592529,1434.284058 1150.253540,1434.990479 1159.752686,1436.275513 
	C1161.974243,1436.576050 1164.270996,1436.319946 1167.104004,1436.319946 
	C1167.104004,1442.254150 1167.104004,1447.391602 1167.104004,1453.109375 
	C1086.115479,1453.109375 1005.340332,1453.109375 924.107178,1453.109375 
	C924.107178,1447.619995 924.107178,1442.456543 924.107178,1437.873901 
	C935.242676,1435.763794 945.902405,1433.790649 956.536133,1431.686279 
	C958.469421,1431.303589 960.360779,1430.523315 962.162354,1429.690430 
	C978.102356,1422.321411 979.626587,1418.878662 971.497498,1403.614868 
	C955.741882,1374.031250 941.194336,1343.804443 926.121033,1313.856812 
	C924.478149,1310.592651 922.349854,1307.537476 921.020325,1304.159668 
	C919.309998,1299.814331 916.062378,1299.342896 911.273926,1299.680176 
M904.221008,1268.994385 
	C896.951172,1254.819092 889.607544,1240.681030 882.425354,1226.461548 
	C861.790894,1185.608643 841.237549,1144.714966 820.604065,1103.861572 
	C818.363647,1099.425781 815.808350,1095.148926 812.812500,1089.739136 
	C802.644409,1111.887451 793.074951,1132.638306 783.586426,1153.426147 
	C773.946838,1174.544922 764.348755,1195.682861 754.803528,1216.844604 
	C745.513062,1237.441406 735.501099,1257.739624 727.145752,1279.092773 
	C788.400940,1279.092773 848.154480,1279.092773 908.941772,1279.092773 
	C907.402100,1275.609985 906.235291,1272.970703 904.221008,1268.994385 
z"/>
<path fill="#FCFCFC" opacity="1.000000" stroke="none" 
	d="
M2130.178223,1428.628418 
	C2133.056152,1426.811890 2135.506592,1425.637939 2137.452637,1423.899536 
	C2143.128174,1418.829468 2143.442139,1417.195068 2139.924072,1410.129517 
	C2129.703613,1389.603027 2119.386475,1369.124390 2109.072754,1348.644287 
	C2101.010498,1332.635010 2092.896973,1316.651611 2084.560303,1300.170654 
	C2017.550903,1300.170654 1950.300903,1300.170654 1882.157104,1300.170654 
	C1877.730957,1309.515747 1872.993286,1319.300903 1868.440918,1329.171631 
	C1856.067749,1355.999634 1843.756226,1382.856079 1831.458130,1409.718506 
	C1827.623047,1418.094971 1828.440674,1421.900879 1835.362915,1427.824219 
	C1842.438721,1433.878906 1851.045288,1436.229736 1859.990723,1437.643921 
	C1862.550171,1438.048706 1865.133301,1438.303467 1867.875488,1438.648315 
	C1867.875488,1443.826538 1867.875488,1448.332520 1867.875488,1453.257080 
	C1829.208374,1453.257080 1791.014160,1453.257080 1752.234863,1453.257080 
	C1752.234863,1448.177368 1752.234863,1443.364746 1752.234863,1438.675903 
	C1761.668213,1436.537354 1771.097778,1434.911011 1780.210449,1432.213867 
	C1793.897095,1428.162842 1803.395630,1419.919678 1809.533325,1406.139771 
	C1829.130737,1362.141113 1849.927734,1318.677490 1870.172485,1274.966064 
	C1894.315918,1222.837158 1918.327637,1170.647217 1942.470215,1118.517944 
	C1963.682983,1072.714478 1985.013062,1026.965332 2006.256958,981.176392 
	C2011.988037,968.824036 2017.580933,956.407593 2023.274292,944.037598 
	C2023.928833,942.615295 2024.822876,941.303162 2026.277344,938.770508 
	C2032.333984,950.277466 2037.945190,960.632507 2043.277588,971.129028 
	C2056.969482,998.079712 2070.560059,1025.081909 2084.148682,1052.084961 
	C2096.400146,1076.431152 2108.541016,1100.833374 2120.826172,1125.162598 
	C2152.277100,1187.447632 2183.751465,1249.720947 2215.276855,1311.968262 
	C2231.643555,1344.284424 2248.310547,1376.449829 2264.477051,1408.865234 
	C2269.765869,1419.469849 2278.498291,1425.582642 2288.750977,1429.917847 
	C2300.762207,1434.996704 2313.520264,1437.084961 2326.524414,1437.658325 
	C2328.509521,1437.745850 2330.494141,1437.846680 2333.075684,1437.969849 
	C2333.075684,1442.925049 2333.075684,1447.728271 2333.075684,1453.111938 
	C2251.742188,1453.111938 2170.596436,1453.111938 2088.884766,1453.111938 
	C2088.884766,1448.352295 2088.884766,1443.824585 2088.884766,1439.415161 
	C2102.316406,1435.976929 2115.918213,1432.495117 2130.178223,1428.628418 
M1965.188599,1118.193848 
	C1940.890869,1171.541260 1916.593262,1224.888550 1892.192627,1278.462036 
	C1904.820923,1280.569580 2067.121338,1280.071777 2074.439941,1277.886475 
	C2042.625122,1215.382690 2010.862549,1152.981567 1978.527222,1089.455322 
	C1975.992798,1094.888794 1974.031372,1099.061646 1972.098022,1103.247314 
	C1970.008179,1107.771606 1967.944458,1112.307983 1965.188599,1118.193848 
z"/>
<path fill="#030303" opacity="1.000000" stroke="none" 
	d="
M904.644775,1269.662842 
	C906.235291,1272.970703 907.402100,1275.609985 908.941772,1279.092773 
	C848.154480,1279.092773 788.400940,1279.092773 727.145752,1279.092773 
	C735.501099,1257.739624 745.513062,1237.441406 754.803528,1216.844604 
	C764.348755,1195.682861 773.946838,1174.544922 783.586426,1153.426147 
	C793.074951,1132.638306 802.644409,1111.887451 812.812500,1089.739136 
	C815.808350,1095.148926 818.363647,1099.425781 820.604065,1103.861572 
	C841.237549,1144.714966 861.790894,1185.608643 882.425354,1226.461548 
	C889.607544,1240.681030 896.951172,1254.819092 904.644775,1269.662842 
z"/>
<path fill="#030303" opacity="1.000000" stroke="none" 
	d="
M1965.528931,1117.516479 
	C1967.944458,1112.307983 1970.008179,1107.771606 1972.098022,1103.247314 
	C1974.031372,1099.061646 1975.992798,1094.888794 1978.527222,1089.455322 
	C2010.862549,1152.981567 2042.625122,1215.382690 2074.439941,1277.886475 
	C2067.121338,1280.071777 1904.820923,1280.569580 1892.192627,1278.462036 
	C1916.593262,1224.888550 1940.890869,1171.541260 1965.528931,1117.516479 
z"/>
</svg>